<svg xmlns="http://www.w3.org/2000/svg" width="496.626" height="457.684" viewBox="0 0 496.626 457.684">
  <g id="Flight_Notification" data-name="Flight Notification" transform="translate(-6738.75 -13262)">
    <g id="plane_2_" data-name="plane (2)" transform="translate(6738.75 13259.842)">
      <g id="Group_78410" data-name="Group 78410" transform="translate(107.345 7.77)">
        <path id="Path_154780" data-name="Path 154780" d="M161.4,58.364,142.083,39.052l27.408-27.408a7.024,7.024,0,0,1,9.933,0l9.38,9.38a7.024,7.024,0,0,1,0,9.933Z" transform="translate(-142.083 -9.587)" fill="#3d6687"/>
        <path id="Path_154781" data-name="Path 154781" d="M229.362,90.415,210.05,71.1l27.408-27.408a7.024,7.024,0,0,1,9.933,0l9.38,9.38a7.024,7.024,0,0,1,0,9.933Z" transform="translate(-158.7 -17.423)" fill="#3d6687"/>
      </g>
      <g id="Group_78411" data-name="Group 78411" transform="translate(5.619 13.565)">
        <path id="Path_154784" data-name="Path 154784" d="M343.588,346.422,220.995,182.183,56.756,59.59a11.784,11.784,0,0,1-1.284-17.776L72.31,24.976a26.355,26.355,0,0,1,28.726-5.711L301.027,102.15l82.886,199.991a26.355,26.355,0,0,1-5.711,28.726l-16.838,16.838A11.784,11.784,0,0,1,343.588,346.422Z" transform="translate(-18.337 -17.256)" fill="#ccdfed"/>
        <path id="Path_154785" data-name="Path 154785" d="M140.789,450.1,84.411,375.141,9.453,318.762a5.055,5.055,0,0,1-.536-7.615l8.644-8.644A19.784,19.784,0,0,1,39.71,298.47l83.55,37.821,37.822,83.55a19.785,19.785,0,0,1-4.034,22.149l-8.644,8.644A5.056,5.056,0,0,1,140.789,450.1Z" transform="translate(-7.437 -85.579)" fill="#ccdfed"/>
      </g>
      <g id="Group_78412" data-name="Group 78412" transform="translate(5.619 36.849)">
        <path id="Path_154786" data-name="Path 154786" d="M140.067,402.7a16.337,16.337,0,0,1-24.608-1.732L92.507,370.45l-.072.072-79.6-59.887h0l-3.917,3.917a5.056,5.056,0,0,0,.536,7.616l74.957,56.379L140.789,453.5a5.055,5.055,0,0,0,7.615.536l8.644-8.644a19.784,19.784,0,0,0,4.034-22.149l-12.952-28.612h0Z" transform="translate(-7.437 -112.269)" fill="#bad5e5"/>
        <path id="Path_154787" data-name="Path 154787" d="M383.476,330.831c.339-.733.657-1.475.926-2.233a26.672,26.672,0,0,0-.485-18.921L371.869,280.6l-.765-1.847a26.335,26.335,0,0,1-7.514,15.362l-16.838,16.838a11.784,11.784,0,0,1-17.776-1.284l-97.42-130.512L56.749,48.076l-1.273,1.273a11.812,11.812,0,0,0,1.284,17.776l106.708,79.651L221,189.718l42.942,57.531,79.651,106.708a11.812,11.812,0,0,0,17.776,1.284L378.206,338.4A26.306,26.306,0,0,0,383.476,330.831Z" transform="translate(-18.341 -48.076)" fill="#bad5e5"/>
      </g>
      <path id="Path_154788" data-name="Path 154788" d="M102.3,327.954h0c-12.833,6.123-26.237-7.281-20.114-20.114h0a352.468,352.468,0,0,1,51.688-78.977L276.067,64.7a124.368,124.368,0,0,1,82.654-42.423l8.719-.8A19.524,19.524,0,0,1,388.665,42.7l-.8,8.719a124.371,124.371,0,0,1-42.423,82.654L181.279,276.267A352.444,352.444,0,0,1,102.3,327.954Z" transform="translate(-19.72 -4.703)" fill="#61aff6"/>
      <path id="Path_154789" data-name="Path 154789" d="M389.338,51.421l.8-8.719a19.524,19.524,0,0,0-21.225-21.225l-8.719.8c-.113.011-.227.025-.341.036a124.367,124.367,0,0,1-42.388,82.313L86.681,325.074a14.825,14.825,0,0,0,17.093,2.88h0a352.469,352.469,0,0,0,78.977-51.688L346.914,134.074A124.361,124.361,0,0,0,389.338,51.421Z" transform="translate(-21.193 -4.703)" fill="#399aea"/>
      <path id="Path_154790" data-name="Path 154790" d="M394.716,62.049a5.619,5.619,0,0,0-.958,11.2c16.85,1.442,26.923,11.517,28.366,28.366a5.619,5.619,0,1,0,11.2-.958C431.415,78.386,416.982,63.954,394.716,62.049Z" transform="translate(-95.013 -14.638)"/>
      <path id="Path_154791" data-name="Path 154791" d="M51.576,60.4l126.258,94.243L135.691,203.3a5.618,5.618,0,1,0,8.493,7.357l46.1-53.22,0,0h0l81.21-93.759a118.2,118.2,0,0,1,78.92-40.507l8.719-.8a13.906,13.906,0,0,1,15.117,15.117l-.8,8.719a119,119,0,0,1-20.4,56.432,5.619,5.619,0,0,0,9.26,6.367A130.269,130.269,0,0,0,384.64,47.232l.8-8.719A25.142,25.142,0,0,0,358.106,11.18l-8.719.8A129.383,129.383,0,0,0,263,56.32L249.582,71.811,218.632,58.984l1.655-1.655a12.657,12.657,0,0,0,0-17.879l-9.378-9.381a12.659,12.659,0,0,0-17.879,0l-12.94,12.94-14.879-6.166,3.729-3.729a12.657,12.657,0,0,0,0-17.878l-9.38-9.38a12.659,12.659,0,0,0-17.879,0L126.667,20.867l-25.3-10.485a31.879,31.879,0,0,0-34.85,6.928L49.68,34.149a17.4,17.4,0,0,0,1.9,26.252Zm149.4-22.386a1.4,1.4,0,0,1,1.986,0l9.38,9.38a1.406,1.406,0,0,1,0,1.986L207.4,54.326h0l-16.072-6.661ZM149.627,13.8a1.4,1.4,0,0,1,1.986,0l9.38,9.38a1.4,1.4,0,0,1,0,1.985l-7.018,7.019h0L137.9,25.524Zm-92,28.3L74.465,25.258a20.681,20.681,0,0,1,22.6-4.494l144.763,60h0l-56.618,65.367L58.3,51.4a6.164,6.164,0,0,1-.671-9.3Z" transform="translate(-10.9)"/>
      <path id="Path_154792" data-name="Path 154792" d="M351.222,274.019,344.1,256.836c-8.435-19.9-12.98-31.824-15.974-38.544l-13.764-33.211L329.4,172.054c1.11-.962,2.217-1.954,3.29-2.949a5.618,5.618,0,1,0-7.639-8.24c-.982.91-1.994,1.816-3.008,2.7L157.88,305.753q-12.871,11.148-26.765,20.969A348.077,348.077,0,0,1,91,351.206l-.009.005q-5.366,2.795-10.829,5.406a9.47,9.47,0,0,1-12.625-12.625q2.778-5.822,5.778-11.529,1.121-2.141,2.271-4.272c.173-.32.351-.636.524-.956q1.14-2.089,2.307-4.165c.163-.289.33-.577.494-.867q1.2-2.118,2.433-4.223c.153-.26.307-.518.46-.778q1.257-2.132,2.544-4.247c.156-.255.314-.51.47-.765q1.283-2.1,2.6-4.173c.178-.283.358-.563.537-.845q1.279-2.012,2.585-4,.323-.492.647-.982,1.258-1.906,2.541-3.793.38-.559.762-1.117,1.25-1.823,2.521-3.629,9.036-12.831,19.208-24.827a5.619,5.619,0,1,0-8.565-7.275q-8.739,10.289-16.666,21.209L40.209,259.771A25.521,25.521,0,0,0,11.77,264.95L3.126,273.6a10.674,10.674,0,0,0,1.133,16.079l56.555,42.537c-1.161,2.3-2.307,4.615-3.418,6.943A20.764,20.764,0,0,0,76,368.822a20.868,20.868,0,0,0,9-2.063c2.329-1.111,4.64-2.257,6.943-3.417L134.481,419.9a10.67,10.67,0,0,0,7.78,4.232c.252.017.5.026.752.026a10.669,10.669,0,0,0,7.546-3.127l8.642-8.643a25.526,25.526,0,0,0,5.181-28.439L141.4,333.177q12.3-8.947,23.836-18.93l66-57.166,95.131,127.446a17.39,17.39,0,0,0,12.693,6.948q.63.045,1.257.045a17.393,17.393,0,0,0,12.3-5.1l16.837-16.837a31.877,31.877,0,0,0,6.93-34.849L367.2,312.563ZM11.531,281.083l8.186-8.185a14.235,14.235,0,0,1,15.858-2.888l48.827,22.1c-.105.154-.208.311-.312.465q-.915,1.351-1.817,2.71-.44.662-.875,1.327-3.071,4.671-6,9.436c-.243.4-.488.792-.73,1.189q-.865,1.421-1.715,2.851-.441.739-.876,1.481-.822,1.394-1.634,2.792c-.275.476-.544.955-.817,1.432q-1.338,2.342-2.641,4.705c-.3.54-.6,1.079-.9,1.62Zm142.615,107.5a14.234,14.234,0,0,1-2.889,15.858l-8.184,8.185-41.039-54.563c.884-.481,1.763-.972,2.644-1.461q1.886-1.047,3.757-2.118.884-.505,1.766-1.013,1.41-.816,2.811-1.645c.468-.277.934-.556,1.4-.835q4.83-2.885,9.567-5.92.619-.4,1.238-.795,1.463-.946,2.919-1.905c.389-.257.776-.518,1.164-.776.916-.61,1.836-1.216,2.746-1.834ZM361.51,361.639l-16.838,16.838a6.164,6.164,0,0,1-9.3-.671L239.753,249.7h0l65.657-56.87h0L366,339.038h0A20.67,20.67,0,0,1,361.51,361.639Z" transform="translate(0 -38.436)"/>
    </g>
    <g id="Group_78413" data-name="Group 78413" transform="translate(-130.2 -323.159)">
      <g id="_23_Notification_Alarm_Bell" data-name="23 Notification, Alarm, Bell" transform="translate(7148 13766.69)">
        <path id="Path_154810" data-name="Path 154810" d="M102.9,43.45V58.244a4.931,4.931,0,0,1-4.931,4.931H78.244a4.931,4.931,0,0,1-4.931-4.931V43.45a9.863,9.863,0,0,0-19.725,0V58.244a4.931,4.931,0,0,1-4.931,4.931H28.931A4.931,4.931,0,0,1,24,58.244V43.45a39.45,39.45,0,0,1,78.9,0Z" transform="translate(40.126 -4)" fill="#26a6fe"/>
        <path id="Path_154811" data-name="Path 154811" d="M111.763,54.931a44.382,44.382,0,1,1-88.763,0A4.931,4.931,0,0,1,27.931,50h78.9A4.931,4.931,0,0,1,111.763,54.931Z" transform="translate(36.195 176.84)" fill="#26a6fe"/>
        <path id="Path_154812" data-name="Path 154812" d="M218.13,184.6a24.952,24.952,0,0,1-24.656,24.656H35.918A24.9,24.9,0,0,1,20.385,164.87a40.634,40.634,0,0,0,15.287-31.856V90.9A78.875,78.875,0,0,1,170.345,35.128a5.227,5.227,0,0,1,1.282,2.12l21.846,75.991a4.437,4.437,0,0,1,0,1.381v18.394A40.634,40.634,0,0,0,208.76,164.87,24.656,24.656,0,0,1,218.13,184.6Z" transform="translate(-10.996 27.45)" fill="#ffca28"/>
        <path id="Path_154813" data-name="Path 154813" d="M125.763,60.382A44.382,44.382,0,1,1,81.382,16a44.382,44.382,0,0,1,44.382,44.382Z" transform="translate(91.233 43.176)" fill="#ef779b"/>
      </g>
      <g id="Layer_37" data-name="Layer 37" transform="translate(7148 13766.69)">
        <path id="Path_154814" data-name="Path 154814" d="M208.76,196.321a40.634,40.634,0,0,1-15.287-31.856V150.8A44.382,44.382,0,1,0,169.31,65.592,79.541,79.541,0,0,0,154.023,54.1V43.45a39.45,39.45,0,0,0-78.9,0V54.1a78.9,78.9,0,0,0-39.45,68.249v42.113a40.634,40.634,0,0,1-15.287,31.856A24.9,24.9,0,0,0,35.918,240.7H70.437a44.382,44.382,0,0,0,88.172,0h34.519a24.9,24.9,0,0,0,15.534-44.382Zm9.369-88.763a34.519,34.519,0,1,1-34.519-34.519,34.519,34.519,0,0,1,34.519,34.519ZM84.985,43.45a29.588,29.588,0,0,1,59.176,0v5.72a85.014,85.014,0,0,0-9.863-3.156V43.45a19.725,19.725,0,1,0-39.45,0v2.614a76.733,76.733,0,0,0-9.863,3.205Zm39.45.69a70.813,70.813,0,0,0-19.725,0v-.69a9.863,9.863,0,0,1,19.725,0ZM114.572,270.29A34.519,34.519,0,0,1,80.448,240.7H148.7A34.519,34.519,0,0,1,114.572,270.29Zm78.9-39.45H35.918a15.04,15.04,0,0,1-9.369-26.826,50.349,50.349,0,0,0,18.985-39.45V122.351A69.038,69.038,0,0,1,159.743,70.227a44.382,44.382,0,0,0,23.867,81.712v12.525a50.349,50.349,0,0,0,18.986,39.45,15.04,15.04,0,0,1-9.123,26.925Zm-4.931-118.351h-9.863V82.9h9.863Zm0,19.725h-9.863v-9.863h9.863ZM82.223,73.038,87.6,81.323a49.313,49.313,0,0,0-22.339,41.028H55.4A59.176,59.176,0,0,1,82.223,73.038Z" transform="translate(-10.996 -4)"/>
      </g>
    </g>
  </g>
</svg>
